<svg width="32" height="16" viewBox="0 0 32 16" fill="none" xmlns="http://www.w3.org/2000/svg">
<path fill-rule="evenodd" clip-rule="evenodd" d="M23.6426 0.0838667C23.5096 0.139073 23.3887 0.219985 23.287 0.321966C23.185 0.42369 23.1041 0.544534 23.0489 0.677576C22.9937 0.810618 22.9653 0.953245 22.9653 1.09729C22.9653 1.24133 22.9937 1.38396 23.0489 1.517C23.1041 1.65004 23.185 1.77088 23.287 1.87261L27.9888 6.57268H1.09509C0.804651 6.57268 0.526112 6.68806 0.320743 6.89342C0.115375 7.09879 0 7.37733 0 7.66777C0 7.9582 0.115375 8.23674 0.320743 8.44211C0.526112 8.64748 0.804651 8.76285 1.09509 8.76285H27.9889L23.287 13.463C23.0814 13.6686 22.9658 13.9475 22.9658 14.2383C22.9658 14.5291 23.0814 14.808 23.287 15.0136C23.4926 15.2193 23.7715 15.3348 24.0623 15.3348C24.3531 15.3348 24.632 15.2193 24.8376 15.0136L31.4081 8.44312C31.5101 8.3414 31.591 8.22055 31.6462 8.08751C31.7014 7.95447 31.7299 7.81184 31.7299 7.6678C31.7299 7.52376 31.7014 7.38113 31.6462 7.24809C31.591 7.11505 31.5101 6.9942 31.4081 6.89248L24.8376 0.321966C24.7359 0.219985 24.6151 0.139073 24.482 0.0838667C24.349 0.0286603 24.2064 0.000244141 24.0623 0.000244141C23.9183 0.000244141 23.7756 0.0286603 23.6426 0.0838667Z" fill="#48B84A"/>
</svg>
