<svg width="38" height="37" viewBox="0 0 38 37" fill="none" xmlns="http://www.w3.org/2000/svg">
<path d="M24.25 1.50024H13.75C5 1.50024 1.5 5.00024 1.5 13.7502V24.2502C1.5 30.8652 3.495 34.4877 8.255 35.8352C8.64 31.2852 13.3125 27.6977 19 27.6977C24.6875 27.6977 29.36 31.2852 29.745 35.8352C34.505 34.4877 36.5 30.8652 36.5 24.2502V13.7502C36.5 5.00024 33 1.50024 24.25 1.50024ZM19 22.7977C15.535 22.7977 12.735 19.9803 12.735 16.5153C12.735 13.0503 15.535 10.2502 19 10.2502C22.465 10.2502 25.265 13.0503 25.265 16.5153C25.265 19.9803 22.465 22.7977 19 22.7977Z" stroke="white" stroke-width="1.5" stroke-linecap="round" stroke-linejoin="round"/>
</svg>
