<svg width="38" height="37" viewBox="0 0 38 37" fill="none" xmlns="http://www.w3.org/2000/svg">
<path d="M24.25 1.5H13.75C5 1.5 1.5 5 1.5 13.75V24.25C1.5 30.865 3.495 34.4875 8.255 35.835C8.64 31.285 13.3125 27.6974 19 27.6974C24.6875 27.6974 29.36 31.285 29.745 35.835C34.505 34.4875 36.5 30.865 36.5 24.25V13.75C36.5 5 33 1.5 24.25 1.5ZM19 22.7975C15.535 22.7975 12.735 19.98 12.735 16.515C12.735 13.05 15.535 10.25 19 10.25C22.465 10.25 25.265 13.05 25.265 16.515C25.265 19.98 22.465 22.7975 19 22.7975Z" stroke="white" stroke-width="1.5" stroke-linecap="round" stroke-linejoin="round"/>
</svg>
